<?xml version="1.0" encoding="utf-8"?>
<!-- Generator: Adobe Illustrator 23.0.4, SVG Export Plug-In . SVG Version: 6.00 Build 0)  -->
<svg version="1.1" id="Capa_1" xmlns="http://www.w3.org/2000/svg" xmlns:xlink="http://www.w3.org/1999/xlink" x="0px" y="0px"
	 viewBox="0 0 121 115" style="enable-background:new 0 0 121 115;" xml:space="preserve">
<style type="text/css">
	.st0{fill-rule:evenodd;clip-rule:evenodd;}
</style>
<path class="st0" fill="#76C3ED" d="M30.7,9.7l2.1,3.4c-0.8,0.5-1.7,1.1-2.5,1.7c-0.8,0.6-1.5,1.1-2.3,1.7l-2.4-3.2c0.8-0.6,1.6-1.1,2.4-1.7
	C28.9,10.9,29.8,10.3,30.7,9.7z M21.1,16.8l2.6,3.1c-1.5,1.2-2.8,2.5-4.1,3.7l-2.8-2.9C18.2,19.4,19.6,18.1,21.1,16.8z M12.8,24.9
	l3,2.6c-1.2,1.4-2.4,2.8-3.4,4.2l-3.2-2.4C10.3,27.9,11.5,26.4,12.8,24.9z M6,34.3l3.5,2c-0.9,1.6-1.7,3.2-2.4,4.7l-3.7-1.5
	C4.2,37.7,5,36,6,34.3z M1.6,44.9l3.9,1c-0.5,1.7-0.8,3.4-1,5.1l-4-0.5C0.7,48.7,1.1,46.8,1.6,44.9z M0.2,56.4l4-0.1
	c0,1.7,0.2,3.5,0.5,5.2l-4,0.6C0.4,60.3,0.3,58.3,0.2,56.4z M2,67.9l3.9-1.1c0.5,1.7,1,3.4,1.7,5.1l-3.7,1.5
	C3.1,71.5,2.5,69.7,2,67.9z M6.1,78.7l3.6-1.8c0.8,1.6,1.7,3.2,2.6,4.9l-3.5,2C7.9,82.1,7,80.4,6.1,78.7z M12,88.7l3.3-2.2
	c0.5,0.8,1,1.5,1.6,2.3c0.6,0.8,1.2,1.6,1.8,2.4l-3.1,2.5c-0.7-0.8-1.3-1.7-1.9-2.6C13,90.3,12.5,89.5,12,88.7z M19.8,98.4l2.8-2.8
	c1.4,1.4,2.9,2.7,4.5,3.9l-2.5,3.2C23,101.3,21.3,99.9,19.8,98.4z M29.9,106.3l2.1-3.4c1.7,1,3.5,2,5.2,2.8l-1.7,3.6
	C33.6,108.4,31.7,107.4,29.9,106.3z M41.5,111.6l1.3-3.8c1.9,0.6,3.8,1.1,5.8,1.5l-0.8,3.9C45.6,112.8,43.5,112.3,41.5,111.6z
	 M54,114.2l0.4-4c2,0.2,4,0.3,6,0.2l0.1,4C58.3,114.5,56.1,114.4,54,114.2z M66.8,114l-0.5-4c2-0.3,3.9-0.6,5.9-1.1l0.9,3.9
	C71,113.4,68.9,113.8,66.8,114z M79.3,111l-1.4-3.8c1.9-0.7,3.7-1.5,5.5-2.3l1.8,3.6C83.2,109.5,81.2,110.3,79.3,111z M90.7,105.4
	c0.9-0.6,1.8-1.2,2.7-1.8c0.8-0.6,1.6-1.1,2.3-1.7l-2.4-3.2c-0.7,0.5-1.5,1.1-2.2,1.6c-0.8,0.6-1.6,1.1-2.5,1.7L90.7,105.4z
	 M100.2,98.3l-2.6-3c1.4-1.2,2.8-2.5,4-3.7l2.8,2.8C103.1,95.7,101.7,97,100.2,98.3z M108.3,90.1l-3.1-2.6c1.2-1.4,2.3-2.8,3.3-4.3
	l3.3,2.3C110.8,87.1,109.6,88.6,108.3,90.1z M114.8,80.7l-3.5-1.9c0.9-1.6,1.6-3.2,2.2-4.8l3.7,1.5
	C116.6,77.2,115.8,78.9,114.8,80.7z M119.1,70l-3.9-1c0.4-1.7,0.8-3.4,1-5.1l4,0.5C119.9,66.2,119.5,68.1,119.1,70z M120.4,58.6
	l-4,0c0-1.7-0.1-3.5-0.4-5.2l4-0.5C120.3,54.8,120.4,56.7,120.4,58.6z M118.9,47.2l-3.9,1c-0.4-1.7-0.9-3.4-1.6-5.1l3.8-1.4
	C117.9,43.6,118.5,45.4,118.9,47.2z M115.1,36.4l-3.6,1.7c-0.7-1.6-1.6-3.2-2.5-4.8l3.5-2C113.4,33,114.3,34.7,115.1,36.4z
	 M109.4,26.4l-3.3,2.2c-0.5-0.8-1-1.5-1.6-2.3c-0.6-0.8-1.2-1.6-1.8-2.4l3.1-2.5c0.7,0.8,1.3,1.7,1.9,2.6
	C108.4,24.8,108.9,25.6,109.4,26.4z M101.6,16.7l-2.8,2.8c-1.4-1.4-2.9-2.7-4.5-3.9l2.5-3.2C98.5,13.8,100.1,15.2,101.6,16.7z
	 M91.5,8.8l-2.1,3.4c-1.7-1-3.5-2-5.2-2.8l1.7-3.6C87.8,6.7,89.7,7.7,91.5,8.8z M79.9,3.5l-1.3,3.8c-1.9-0.6-3.8-1.1-5.8-1.5
	l0.8-3.9C75.8,2.2,77.9,2.8,79.9,3.5z M67.4,0.8l-0.4,4c-2-0.2-4-0.3-6-0.2l-0.1-4C63.1,0.6,65.3,0.6,67.4,0.8z M54.6,1.1l0.5,4
	c-2,0.3-3.9,0.6-5.9,1.1l-0.9-3.9C50.4,1.7,52.5,1.3,54.6,1.1z M42.2,4.1c-2,0.7-4,1.6-5.9,2.5l1.8,3.6c1.8-0.9,3.6-1.7,5.5-2.3
	L42.2,4.1z"/>
</svg>
