<?xml version="1.0" encoding="utf-8"?>
<!-- Generator: Adobe Illustrator 23.0.4, SVG Export Plug-In . SVG Version: 6.00 Build 0)  -->
<svg version="1.1" id="Capa_1" xmlns="http://www.w3.org/2000/svg" xmlns:xlink="http://www.w3.org/1999/xlink" x="0px" y="0px"
	 viewBox="0 0 62 58" style="enable-background:new 0 0 62 58;" xml:space="preserve">
<style type="text/css">
	.st0{fill-rule:evenodd;clip-rule:evenodd;}
</style>
<path class="st0" fill="#76C3ED" d="M17.2,4.3l2,3.5c-0.7,0.4-1.4,0.8-2.1,1.3c-0.8,0.5-1.5,1.1-2.2,1.6l-2.5-3.1C13.2,7,14,6.4,14.8,5.8
	C15.6,5.3,16.4,4.8,17.2,4.3z M8.1,11.5l2.9,2.8c-1.3,1.3-2.3,2.7-3.2,4l-3.3-2.2C5.4,14.6,6.7,13,8.1,11.5z M1.9,21.3l3.8,1.3
	c-0.5,1.5-0.8,3.1-0.9,4.6l-4-0.2C0.9,25.1,1.2,23.2,1.9,21.3z M1.3,32.9L5.2,32c0.3,1.6,0.9,3.2,1.6,4.8l-3.7,1.6
	C2.3,36.6,1.7,34.7,1.3,32.9z M5.9,43.6l3.4-2.1c0.5,0.7,1,1.5,1.5,2.2c0.5,0.7,1,1.3,1.5,1.9l-3,2.6c-0.6-0.7-1.2-1.4-1.8-2.2
	C6.9,45.2,6.4,44.4,5.9,43.6z M13.4,52.1l2.4-3.2c1.3,1,2.7,1.8,4.1,2.5L18.2,55C16.5,54.2,14.9,53.2,13.4,52.1z M23.5,57l1-3.9
	c1.6,0.4,3.2,0.6,4.8,0.7l-0.2,4C27.2,57.7,25.4,57.4,23.5,57z M34.8,57.6l-0.6-4c1.6-0.2,3.2-0.6,4.7-1.2l1.3,3.8
	C38.5,56.8,36.6,57.3,34.8,57.6z M45.4,53.9c0.8-0.5,1.6-1,2.4-1.5c0.8-0.6,1.6-1.2,2.3-1.8l-2.5-3.1c-0.7,0.5-1.4,1.1-2.1,1.6
	c-0.7,0.5-1.4,0.9-2.1,1.3L45.4,53.9z M54.4,46.6l-2.9-2.7c1.2-1.3,2.2-2.7,3.1-4l3.4,2.1C56.9,43.6,55.8,45.1,54.4,46.6z
	 M60.4,36.8l-3.8-1.2c0.5-1.6,0.8-3.1,0.9-4.7l4,0.2C61.3,33,61,34.9,60.4,36.8z M61,25.3L57.1,26c-0.3-1.6-0.8-3.2-1.4-4.8l3.7-1.5
	C60.1,21.6,60.7,23.4,61,25.3z M56.7,14.6l-3.4,2.1c-0.5-0.7-0.9-1.5-1.5-2.2c-0.5-0.7-1-1.3-1.5-1.9l3-2.6c0.6,0.7,1.2,1.4,1.8,2.2
	C55.7,13,56.2,13.8,56.7,14.6z M49.2,6.1l-2.4,3.2c-1.3-1-2.7-1.8-4.1-2.5l1.7-3.6C46.1,3.9,47.7,4.9,49.2,6.1z M39.1,1.2
	c-1.8-0.5-3.7-0.7-5.6-0.8l-0.2,4c1.6,0.1,3.2,0.3,4.8,0.7L39.1,1.2z M27.8,0.6l0.6,4c-1.6,0.2-3.2,0.6-4.7,1.2l-1.3-3.8
	C24.1,1.3,26,0.9,27.8,0.6z"/>
</svg>
