<svg width="121" height="115" viewBox="0 0 121 115" fill="none" xmlns="http://www.w3.org/2000/svg">
<path d="M21.1251 16.8286C22.5529 15.6225 24.0624 14.4208 25.6562 13.224L26.8556 14.8243C27.6071 14.26 28.3781 13.6963 29.1691 13.1335C30.0166 12.5304 30.8746 11.9539 31.742 11.4038L30.6725 9.71366C32.4977 8.55625 34.3641 7.51135 36.263 6.57761L37.144 8.37345C39.013 7.45435 40.9144 6.64688 42.839 5.94952L42.1591 4.06811C44.1818 3.33519 46.2297 2.71964 48.2929 2.21994L48.7625 4.16473C50.7782 3.67654 52.8091 3.30286 54.8454 3.04217L54.5924 1.05743C56.7202 0.785016 58.8537 0.631717 60.9827 0.595913L61.0156 2.59655C63.0837 2.56177 65.147 2.64182 67.1955 2.83506L67.3837 0.842961C69.5139 1.0439 71.6287 1.36303 73.7175 1.79865L73.3092 3.7575C75.3284 4.1786 77.322 4.71242 79.2797 5.35725L79.9051 3.45658C81.9323 4.1243 83.9227 4.90699 85.8657 5.80296L85.0288 7.62034C86.895 8.48089 88.7153 9.44963 90.4798 10.5249L91.5198 8.81571C93.3357 9.92231 95.0948 11.1379 96.7869 12.4608L95.5561 14.0378C97.1669 15.2972 98.7148 16.6576 100.19 18.1174L101.596 16.6943C103.101 18.1834 104.533 19.7722 105.882 21.4593L104.322 22.7103C104.962 23.5104 105.583 24.3335 106.184 25.1796C106.729 25.9484 107.26 26.7209 107.773 27.4968L109.44 26.3911C110.511 28.0092 111.515 29.644 112.445 31.293L110.705 32.2776C111.634 33.9245 112.488 35.5831 113.261 37.2507L115.074 36.408C115.891 38.1694 116.621 39.9435 117.261 41.7273L115.379 42.4037C116.012 44.1684 116.551 45.9392 116.992 47.7131L118.932 47.2297C119.398 49.1062 119.759 50.9898 120.009 52.8773L118.027 53.1405C118.269 54.9711 118.402 56.8023 118.419 58.6311L120.418 58.6113C120.436 60.5258 120.334 62.4406 120.105 64.3524L118.12 64.1148C117.905 65.916 117.571 67.7142 117.113 69.5068L119.05 70.0018C118.583 71.8308 117.992 73.6537 117.273 75.4673L115.415 74.7296C114.753 76.3985 113.976 78.0622 113.078 79.718L114.835 80.6722C113.944 82.3146 112.94 83.9468 111.82 85.5663L110.177 84.4273C109.154 85.9054 108.027 87.3759 106.793 88.8366L108.319 90.1285C107.116 91.5523 105.816 92.9642 104.416 94.3625L103.004 92.9463C101.726 94.2229 100.359 95.4903 98.9017 96.7467L100.206 98.2627C98.7957 99.4784 97.3044 100.682 95.7299 101.873L94.5252 100.276C93.7837 100.837 93.0228 101.395 92.2423 101.951C91.3948 102.554 90.5369 103.13 89.6694 103.68L90.7389 105.371C88.9137 106.528 87.0473 107.573 85.1485 108.507L84.2674 106.711C82.3984 107.63 80.497 108.437 78.5724 109.135L79.2524 111.016C77.2296 111.749 75.1817 112.365 73.1185 112.864L72.6489 110.92C70.6332 111.408 68.6023 111.781 66.566 112.042L66.819 114.027C64.6912 114.299 62.5577 114.453 60.4287 114.488L60.3958 112.488C58.3278 112.522 56.2644 112.442 54.2159 112.249L54.0277 114.241C51.8976 114.04 49.7827 113.721 47.6939 113.286L48.1023 111.327C46.0831 110.906 44.0895 110.372 42.1318 109.727L41.5063 111.628C39.4791 110.96 37.4887 110.177 35.5457 109.281L36.3827 107.464C34.5165 106.603 32.6961 105.635 30.9316 104.559L29.8917 106.269C28.0758 105.162 26.3166 103.946 24.6245 102.623L25.8554 101.046C24.2445 99.787 22.6967 98.4267 21.2214 96.9668L19.8157 98.39C18.3109 96.9009 16.8789 95.312 15.5292 93.6249L17.0898 92.3739C16.4498 91.5739 15.8287 90.7507 15.2279 89.9046C14.6753 89.1265 14.1367 88.3463 13.6127 87.5641L11.9522 88.6787C10.8627 87.0523 9.83363 85.4151 8.87177 83.7684L10.5976 82.7581C9.63168 81.1044 8.73715 79.4445 7.92046 77.7798L6.12601 78.6622C5.26235 76.9018 4.48151 75.1324 3.79137 73.3555L5.65463 72.63C4.96818 70.8626 4.37642 69.0927 3.88645 67.3218L1.95986 67.8563C1.4392 65.9744 1.02772 64.0861 0.734605 62.1932L2.7101 61.8861C2.42561 60.0489 2.25831 58.2117 2.21617 56.3758L0.21762 56.4224C0.173397 54.4956 0.260432 52.5661 0.488294 50.6356L2.47357 50.8698C2.68629 49.0676 3.02817 47.2642 3.50816 45.4608L1.57646 44.9463C2.06332 43.1171 2.6851 41.2888 3.44993 39.463L5.29347 40.2362C5.98677 38.5812 6.80499 36.9241 7.75619 35.2661L6.02269 34.2701C6.95348 32.6477 8.00416 31.0286 9.18051 29.4139L10.7956 30.5925C11.8561 29.1369 13.0253 27.681 14.3087 26.226L12.8103 24.9019C14.0459 23.5011 15.3814 22.1045 16.8204 20.7129L18.2092 22.1516C19.519 20.885 20.9194 19.6201 22.4141 18.3576L21.1251 16.8286Z" stroke="#A5D1F1" stroke-opacity="0.4" stroke-width="4" stroke-dasharray="6 6"/>
</svg>
