<svg width="62" height="58" viewBox="0 0 62 58" fill="none" xmlns="http://www.w3.org/2000/svg">
<path d="M8.10265 11.5245C9.36476 10.2074 10.8061 8.8984 12.4393 7.59999L13.6823 9.16666C14.3961 8.59925 15.1501 8.03224 15.9458 7.466C16.6727 6.94873 17.4152 6.47169 18.1706 6.03434L17.17 4.30239C18.8323 3.34004 20.5549 2.55585 22.3131 1.94595L22.9671 3.83652C24.6485 3.25325 26.3645 2.84106 28.0901 2.59592L27.8099 0.614854C29.6915 0.347548 31.584 0.265294 33.4593 0.363672L33.354 2.36185C35.1156 2.45426 36.8601 2.71775 38.5604 3.14772L39.0507 1.20775C40.8796 1.67024 42.662 2.31226 44.3689 3.12925L43.506 4.93444C45.0792 5.68743 46.5823 6.59986 47.9894 7.66734L49.1973 6.07255C50.6827 7.19942 52.0697 8.48724 53.3316 9.93185L51.8265 11.2492C52.3978 11.9032 52.9418 12.5921 53.4557 13.3157C53.9981 14.0795 54.5081 14.8498 54.9839 15.6252L56.6875 14.5776C57.7259 16.2701 58.615 17.9955 59.3341 19.7423L57.4858 20.5051C58.1932 22.2236 58.7192 23.9495 59.0483 25.6713L61.0118 25.2947C61.3788 27.215 61.5229 29.1467 61.4182 31.0757L59.422 30.9677C59.3279 32.7017 59.0132 34.4324 58.4541 36.1507L60.3549 36.7698C59.7796 38.5379 58.9692 40.2917 57.9033 42.02L56.2023 40.9694C55.3126 42.4119 54.2221 43.8488 52.91 45.2707L54.3783 46.6281C53.1415 47.9684 51.7288 49.286 50.1297 50.5749L48.8762 49.0166C48.174 49.5825 47.4322 50.1444 46.6493 50.7015C45.9224 51.2188 45.1799 51.6958 44.4245 52.1332L45.425 53.8651C43.7628 54.8275 42.0401 55.6117 40.282 56.2216L39.6279 54.331C37.9465 54.9143 36.2305 55.3265 34.5049 55.5716L34.7852 57.5527C32.9036 57.82 31.011 57.9022 29.1357 57.8038L29.241 55.8057C27.4794 55.7133 25.7349 55.4498 24.0346 55.0198L23.5444 56.9598C21.7154 56.4973 19.933 55.8553 18.2261 55.0383L19.089 53.2331C17.5158 52.4801 16.0127 51.5677 14.6056 50.5002L13.3977 52.095C11.9123 50.9681 10.5254 49.6803 9.26339 48.2357L10.7685 46.9183C10.1972 46.2644 9.65321 45.5754 9.13931 44.8518C8.58783 44.0752 8.06529 43.2957 7.5744 42.5139L5.88175 43.579C4.8146 41.8795 3.88368 40.1584 3.11833 38.4215L4.94746 37.6136C4.1859 35.8853 3.60752 34.161 3.23526 32.4458L1.28174 32.8712C0.862857 30.9412 0.679421 28.9998 0.769894 27.0547L2.76681 27.1471C2.84695 25.4243 3.16487 23.6983 3.75599 21.9704L1.86474 21.3228C2.46388 19.5715 3.31574 17.8234 4.44841 16.0841L6.12303 17.1764C7.04393 15.7622 8.17598 14.3381 9.54517 12.9093L8.10265 11.5245Z" stroke="#A5D1F1" stroke-opacity="0.4" stroke-width="4" stroke-dasharray="6 6"/>
</svg>
